<mxfile host="app.diagrams.net" modified="2021-04-30T07:30:15.796Z" agent="5.0 (Windows NT 10.0; Win64; x64) AppleWebKit/537.36 (KHTML, like Gecko) Chrome/90.0.4430.85 Safari/537.36 Edg/90.0.818.49" etag="sV_4axqNfkUjsKmwbBi1" version="14.6.9" type="github">
  <diagram id="EKjatsBevS1keZDcuQas" name="Page-1">
    <mxGraphModel dx="2370" dy="1270" grid="1" gridSize="10" guides="1" tooltips="1" connect="1" arrows="1" fold="1" page="1" pageScale="1" pageWidth="827" pageHeight="1169" math="0" shadow="0">
      <root>
        <mxCell id="0" />
        <mxCell id="1" parent="0" />
        <mxCell id="tMUB3QU7W2MA705_FHcs-1" value="[Веб-сервер]" style="rounded=0;whiteSpace=wrap;html=1;" vertex="1" parent="1">
          <mxGeometry x="360" y="280" width="120" height="60" as="geometry" />
        </mxCell>
        <mxCell id="tMUB3QU7W2MA705_FHcs-2" value="[Клиент]" style="rounded=0;whiteSpace=wrap;html=1;" vertex="1" parent="1">
          <mxGeometry x="160" y="280" width="120" height="60" as="geometry" />
        </mxCell>
        <mxCell id="tMUB3QU7W2MA705_FHcs-3" value="[Сервер БД]" style="rounded=0;whiteSpace=wrap;html=1;" vertex="1" parent="1">
          <mxGeometry x="560" y="280" width="120" height="60" as="geometry" />
        </mxCell>
        <mxCell id="tMUB3QU7W2MA705_FHcs-14" style="edgeStyle=orthogonalEdgeStyle;rounded=0;orthogonalLoop=1;jettySize=auto;html=1;exitX=1;exitY=0.5;exitDx=0;exitDy=0;entryX=0.5;entryY=0;entryDx=0;entryDy=0;" edge="1" parent="1" source="tMUB3QU7W2MA705_FHcs-4" target="tMUB3QU7W2MA705_FHcs-7">
          <mxGeometry relative="1" as="geometry" />
        </mxCell>
        <mxCell id="tMUB3QU7W2MA705_FHcs-4" value="" style="ellipse;html=1;shape=startState;fillColor=#000000;" vertex="1" parent="1">
          <mxGeometry x="100" y="390" width="30" height="30" as="geometry" />
        </mxCell>
        <mxCell id="tMUB3QU7W2MA705_FHcs-6" value="" style="ellipse;html=1;shape=endState;fillColor=#000000;" vertex="1" parent="1">
          <mxGeometry x="100" y="1300" width="30" height="30" as="geometry" />
        </mxCell>
        <mxCell id="tMUB3QU7W2MA705_FHcs-15" style="edgeStyle=orthogonalEdgeStyle;rounded=0;orthogonalLoop=1;jettySize=auto;html=1;exitX=1;exitY=0.5;exitDx=0;exitDy=0;entryX=0.5;entryY=0;entryDx=0;entryDy=0;" edge="1" parent="1" source="tMUB3QU7W2MA705_FHcs-7" target="tMUB3QU7W2MA705_FHcs-8">
          <mxGeometry relative="1" as="geometry" />
        </mxCell>
        <mxCell id="tMUB3QU7W2MA705_FHcs-7" value="Запрос данных" style="rounded=1;whiteSpace=wrap;html=1;strokeColor=#000000;" vertex="1" parent="1">
          <mxGeometry x="160" y="430" width="120" height="60" as="geometry" />
        </mxCell>
        <mxCell id="tMUB3QU7W2MA705_FHcs-16" style="edgeStyle=orthogonalEdgeStyle;rounded=0;orthogonalLoop=1;jettySize=auto;html=1;exitX=0;exitY=0.5;exitDx=0;exitDy=0;entryX=0.5;entryY=0;entryDx=0;entryDy=0;" edge="1" parent="1" source="tMUB3QU7W2MA705_FHcs-8" target="tMUB3QU7W2MA705_FHcs-9">
          <mxGeometry relative="1" as="geometry" />
        </mxCell>
        <mxCell id="tMUB3QU7W2MA705_FHcs-29" value="Сервер не доступен" style="edgeLabel;html=1;align=center;verticalAlign=middle;resizable=0;points=[];" vertex="1" connectable="0" parent="tMUB3QU7W2MA705_FHcs-16">
          <mxGeometry x="-0.6145" y="-2" relative="1" as="geometry">
            <mxPoint x="-26" y="2" as="offset" />
          </mxGeometry>
        </mxCell>
        <mxCell id="tMUB3QU7W2MA705_FHcs-19" value="доступен" style="edgeStyle=orthogonalEdgeStyle;rounded=0;orthogonalLoop=1;jettySize=auto;html=1;exitX=0.5;exitY=1;exitDx=0;exitDy=0;" edge="1" parent="1" source="tMUB3QU7W2MA705_FHcs-8" target="tMUB3QU7W2MA705_FHcs-10">
          <mxGeometry relative="1" as="geometry" />
        </mxCell>
        <mxCell id="tMUB3QU7W2MA705_FHcs-8" value="" style="rhombus;whiteSpace=wrap;html=1;strokeColor=#000000;" vertex="1" parent="1">
          <mxGeometry x="380" y="520" width="80" height="50" as="geometry" />
        </mxCell>
        <mxCell id="tMUB3QU7W2MA705_FHcs-17" style="edgeStyle=orthogonalEdgeStyle;rounded=0;orthogonalLoop=1;jettySize=auto;html=1;exitX=1;exitY=0.5;exitDx=0;exitDy=0;entryX=0.5;entryY=1;entryDx=0;entryDy=0;" edge="1" parent="1" source="tMUB3QU7W2MA705_FHcs-9" target="tMUB3QU7W2MA705_FHcs-7">
          <mxGeometry relative="1" as="geometry" />
        </mxCell>
        <mxCell id="tMUB3QU7W2MA705_FHcs-30" value="Повторить" style="edgeLabel;html=1;align=center;verticalAlign=middle;resizable=0;points=[];" vertex="1" connectable="0" parent="tMUB3QU7W2MA705_FHcs-17">
          <mxGeometry x="-0.0074" y="-1" relative="1" as="geometry">
            <mxPoint as="offset" />
          </mxGeometry>
        </mxCell>
        <mxCell id="tMUB3QU7W2MA705_FHcs-18" style="edgeStyle=orthogonalEdgeStyle;rounded=0;orthogonalLoop=1;jettySize=auto;html=1;exitX=0.5;exitY=1;exitDx=0;exitDy=0;entryX=0.5;entryY=0;entryDx=0;entryDy=0;" edge="1" parent="1" source="tMUB3QU7W2MA705_FHcs-9" target="tMUB3QU7W2MA705_FHcs-6">
          <mxGeometry relative="1" as="geometry">
            <Array as="points">
              <mxPoint x="115" y="640" />
              <mxPoint x="115" y="640" />
            </Array>
          </mxGeometry>
        </mxCell>
        <mxCell id="tMUB3QU7W2MA705_FHcs-31" value="Прервать" style="edgeLabel;html=1;align=center;verticalAlign=middle;resizable=0;points=[];" vertex="1" connectable="0" parent="tMUB3QU7W2MA705_FHcs-18">
          <mxGeometry x="-0.7734" y="-2" relative="1" as="geometry">
            <mxPoint as="offset" />
          </mxGeometry>
        </mxCell>
        <mxCell id="tMUB3QU7W2MA705_FHcs-9" value="" style="rhombus;whiteSpace=wrap;html=1;strokeColor=#000000;" vertex="1" parent="1">
          <mxGeometry x="75" y="570" width="80" height="50" as="geometry" />
        </mxCell>
        <mxCell id="tMUB3QU7W2MA705_FHcs-20" style="edgeStyle=orthogonalEdgeStyle;rounded=0;orthogonalLoop=1;jettySize=auto;html=1;exitX=1;exitY=0.5;exitDx=0;exitDy=0;" edge="1" parent="1" source="tMUB3QU7W2MA705_FHcs-10" target="tMUB3QU7W2MA705_FHcs-11">
          <mxGeometry relative="1" as="geometry" />
        </mxCell>
        <mxCell id="tMUB3QU7W2MA705_FHcs-10" value="Запрос к БД" style="rounded=1;whiteSpace=wrap;html=1;strokeColor=#000000;" vertex="1" parent="1">
          <mxGeometry x="360" y="610" width="120" height="60" as="geometry" />
        </mxCell>
        <mxCell id="tMUB3QU7W2MA705_FHcs-24" style="edgeStyle=orthogonalEdgeStyle;rounded=0;orthogonalLoop=1;jettySize=auto;html=1;exitX=0.5;exitY=1;exitDx=0;exitDy=0;entryX=0.5;entryY=0;entryDx=0;entryDy=0;" edge="1" parent="1" source="tMUB3QU7W2MA705_FHcs-11" target="tMUB3QU7W2MA705_FHcs-12">
          <mxGeometry relative="1" as="geometry" />
        </mxCell>
        <mxCell id="tMUB3QU7W2MA705_FHcs-11" value="Выборка данных" style="rounded=1;whiteSpace=wrap;html=1;strokeColor=#000000;" vertex="1" parent="1">
          <mxGeometry x="560" y="710" width="120" height="60" as="geometry" />
        </mxCell>
        <mxCell id="tMUB3QU7W2MA705_FHcs-25" style="edgeStyle=orthogonalEdgeStyle;rounded=0;orthogonalLoop=1;jettySize=auto;html=1;exitX=0.5;exitY=1;exitDx=0;exitDy=0;entryX=0.5;entryY=0;entryDx=0;entryDy=0;" edge="1" parent="1" source="tMUB3QU7W2MA705_FHcs-12" target="tMUB3QU7W2MA705_FHcs-21">
          <mxGeometry relative="1" as="geometry" />
        </mxCell>
        <mxCell id="tMUB3QU7W2MA705_FHcs-12" value="Генерация ответа" style="rounded=1;whiteSpace=wrap;html=1;strokeColor=#000000;" vertex="1" parent="1">
          <mxGeometry x="360" y="840" width="120" height="60" as="geometry" />
        </mxCell>
        <mxCell id="tMUB3QU7W2MA705_FHcs-26" style="edgeStyle=orthogonalEdgeStyle;rounded=0;orthogonalLoop=1;jettySize=auto;html=1;exitX=0.5;exitY=1;exitDx=0;exitDy=0;entryX=0.5;entryY=0;entryDx=0;entryDy=0;" edge="1" parent="1" source="tMUB3QU7W2MA705_FHcs-21" target="tMUB3QU7W2MA705_FHcs-23">
          <mxGeometry relative="1" as="geometry" />
        </mxCell>
        <mxCell id="tMUB3QU7W2MA705_FHcs-21" value="Отправка ответа" style="rounded=1;whiteSpace=wrap;html=1;strokeColor=#000000;" vertex="1" parent="1">
          <mxGeometry x="360" y="950" width="120" height="60" as="geometry" />
        </mxCell>
        <mxCell id="tMUB3QU7W2MA705_FHcs-28" style="edgeStyle=orthogonalEdgeStyle;rounded=0;orthogonalLoop=1;jettySize=auto;html=1;exitX=0.5;exitY=1;exitDx=0;exitDy=0;entryX=1;entryY=0.5;entryDx=0;entryDy=0;" edge="1" parent="1" source="tMUB3QU7W2MA705_FHcs-22" target="tMUB3QU7W2MA705_FHcs-6">
          <mxGeometry relative="1" as="geometry" />
        </mxCell>
        <mxCell id="tMUB3QU7W2MA705_FHcs-22" value="Отрисовка изменений" style="rounded=1;whiteSpace=wrap;html=1;strokeColor=#000000;" vertex="1" parent="1">
          <mxGeometry x="160" y="1160" width="120" height="60" as="geometry" />
        </mxCell>
        <mxCell id="tMUB3QU7W2MA705_FHcs-27" style="edgeStyle=orthogonalEdgeStyle;rounded=0;orthogonalLoop=1;jettySize=auto;html=1;exitX=0.5;exitY=1;exitDx=0;exitDy=0;entryX=0.5;entryY=0;entryDx=0;entryDy=0;" edge="1" parent="1" source="tMUB3QU7W2MA705_FHcs-23" target="tMUB3QU7W2MA705_FHcs-22">
          <mxGeometry relative="1" as="geometry" />
        </mxCell>
        <mxCell id="tMUB3QU7W2MA705_FHcs-23" value="Получение данных" style="rounded=1;whiteSpace=wrap;html=1;strokeColor=#000000;" vertex="1" parent="1">
          <mxGeometry x="160" y="1070" width="120" height="60" as="geometry" />
        </mxCell>
      </root>
    </mxGraphModel>
  </diagram>
</mxfile>
